<svg width="24" height="24" viewBox="0 0 24 24" fill="none" xmlns="http://www.w3.org/2000/svg">
<g clip-path="url(#clip0_39_225)">
<path d="M15.6439 5.03455C12.1551 5.03455 9.28809 7.86213 9.28809 11.3794V21.3104C9.28809 21.6897 9.59897 22.0001 9.97893 22.0001H13.5713C13.9513 22.0001 14.2622 21.6897 14.2622 21.3104V11.6552C14.2622 10.8966 14.8839 10.2759 15.6439 10.2759C16.4038 10.2759 17.0256 10.8966 17.0256 11.6552V21.3104C17.0256 21.6897 17.3364 22.0001 17.7164 22.0001H21.3088C21.6888 22.0001 21.9997 21.6897 21.9997 21.3104V11.3794C21.9997 7.89662 19.1672 5.03455 15.6439 5.03455Z" fill="#505F79"/>
<path d="M6.28325 8.27588H2.69085C2.31088 8.27588 2 8.58622 2 8.96553V21.3104C2 21.6897 2.31088 22 2.69085 22H6.28325C6.66321 22 6.97409 21.6897 6.97409 21.3104V8.96553C6.97409 8.58622 6.66321 8.27588 6.28325 8.27588Z" fill="#505F79"/>
<path d="M4.48705 2C3.10535 2 2 3.10345 2 4.48276C2 5.86207 3.10535 6.96552 4.48705 6.96552C5.86874 6.96552 6.97409 5.86207 6.97409 4.48276C6.97409 3.10345 5.86874 2 4.48705 2Z" fill="#505F79"/>
</g>
<defs>
<clipPath id="clip0_39_225">
<rect width="20" height="20" fill="white" transform="translate(2 2)"/>
</clipPath>
</defs>
</svg>
